<svg width="271" height="86" viewBox="0 0 271 86" fill="none" xmlns="http://www.w3.org/2000/svg">
<rect width="271" height="86" fill="#E5E5E5"/>
<g clip-path="url(#clip0_2340_5112)">
<rect width="1440" height="2300" fill="#F7F8FA"/>
<path d="M0 79.1201H270V2253.2C270 2258.72 265.523 2263.2 260 2263.2H0V79.1201Z" fill="white"/>
<rect x="270.394" width="1169.61" height="86" fill="white"/>
<rect width="270.394" height="86" fill="white"/>
<path fill-rule="evenodd" clip-rule="evenodd" d="M58.5918 45.5906C59.907 47.8683 61.2234 50.1455 62.5411 52.4223L93.3628 45.0456L99.2648 43.4639L58.5918 45.5906Z" fill="#FE8700"/>
<path fill-rule="evenodd" clip-rule="evenodd" d="M98.7735 44.3145L70.5605 53.7152L72.4267 56.9475C72.687 57.4133 73.0685 57.8001 73.5306 58.067C73.9928 58.3338 74.5185 58.4708 75.0521 58.4634H88.8501C89.3836 58.4707 89.9093 58.3338 90.3714 58.0669C90.8335 57.8001 91.2149 57.4133 91.4753 56.9475L94.9315 50.9614L94.9351 50.9634L98.0827 45.512L90.7454 49.5876L88.1215 54.1322H81.099L91.4297 48.394L98.7735 44.3145Z" fill="#032339"/>
<path fill-rule="evenodd" clip-rule="evenodd" d="M93.8808 42.7802L98.9366 42.8958L98.9346 42.8921L93.6699 42.4148L71.3452 40.4845L75.7801 32.795H88.1208L91.1957 38.1209V38.1294L93.241 41.6719L93.7267 41.7057L98.4996 42.1384L94.9345 35.9638L94.9308 35.9659L91.4748 29.9796C91.2143 29.5139 90.8329 29.1272 90.3707 28.8604C89.9086 28.5937 89.383 28.4568 88.8494 28.4642H75.0513C74.5177 28.4567 73.992 28.5937 73.5299 28.8605C73.0677 29.1273 72.6863 29.5141 72.4259 29.9799L68.9697 35.9662C67.6561 38.2377 66.6546 39.9677 65.3428 42.2401L93.8808 42.7802Z" fill="#032339"/>
<path d="M166.812 41.2401C167.791 41.2401 168.574 41.5153 169.162 42.0655C169.751 42.6158 170.061 43.3419 170.091 44.2437V51.7643H166.904V45.5736C166.873 45.0692 166.789 44.6909 166.652 44.4387C166.514 44.1865 166.247 44.0451 165.849 44.0145C165.1 44.0145 164.516 44.3775 164.095 45.1036C163.675 45.8297 163.465 46.6819 163.465 47.6601V51.7643H160.255V45.5736C160.224 45.0692 160.132 44.6909 159.98 44.4387C159.827 44.1865 159.544 44.0451 159.131 44.0145C158.413 44.0145 157.847 44.3775 157.435 45.1036C157.011 45.8716 156.798 46.7375 156.815 47.6142V51.7643H153.605V41.7445H156.518L156.747 43.3262C157.558 41.9352 158.765 41.2397 160.37 41.2397C161.18 41.2397 161.849 41.4041 162.376 41.7328C162.907 42.0662 163.296 42.5851 163.465 43.1887C163.87 42.6144 164.389 42.1304 164.99 41.7671C165.538 41.4275 166.168 41.2452 166.812 41.2401ZM184.169 41.7445V51.7643H180.959V50.5259C179.996 51.5347 178.88 52.0391 177.612 52.0391C176.129 52.0393 174.925 51.5962 174 50.7098C173.075 49.8234 172.613 48.5087 172.613 46.7659C172.613 45.6653 172.839 44.6985 173.29 43.8654C173.705 43.0701 174.327 42.4011 175.09 41.9281C175.811 41.4772 176.646 41.2388 177.497 41.2402C178.384 41.2402 179.087 41.374 179.606 41.6414C180.139 41.9196 180.607 42.3063 180.982 42.7764L181.188 41.7447L184.169 41.7445ZM178.529 49.4256C179.645 49.4256 180.455 48.9211 180.959 47.9123V45.4589C180.78 44.9748 180.446 44.5636 180.008 44.2896C179.531 43.9917 178.976 43.8402 178.414 43.854C178.076 43.8498 177.741 43.917 177.431 44.0514C177.121 44.1857 176.842 44.3841 176.614 44.6335C176.117 45.1532 175.869 45.8105 175.869 46.6054C175.864 47.1069 175.991 47.6009 176.236 48.0384C176.465 48.4583 176.801 48.8102 177.21 49.0587C177.607 49.301 178.064 49.4281 178.529 49.4256H178.529ZM194.441 41.263C195.389 41.263 196.18 41.5458 196.814 42.1114C197.122 42.3791 197.369 42.7103 197.537 43.0823C197.706 43.4544 197.792 43.8584 197.789 44.2667V51.7643H194.579V45.4589C194.533 44.4807 194.044 43.9915 193.112 43.9915C192.378 43.9915 191.79 44.3354 191.346 45.0233C190.903 45.7112 190.681 46.5977 190.681 47.683V51.7643H187.471V41.7445H190.383L190.613 43.3495C190.967 42.7049 191.495 42.1726 192.137 41.8133C192.844 41.4323 193.638 41.2426 194.441 41.263ZM208.061 41.263C209.008 41.263 209.799 41.5458 210.434 42.1114C210.742 42.3792 210.988 42.7104 211.157 43.0824C211.325 43.4544 211.411 43.8584 211.408 44.2667V51.7643H208.198V45.4589C208.152 44.4807 207.663 43.9915 206.731 43.9915C205.997 43.9915 205.408 44.3354 204.965 45.0233C204.522 45.7112 204.3 46.5977 204.3 47.683V51.7643H201.09V41.7445H204.002L204.231 43.3495C204.586 42.7048 205.114 42.1725 205.756 41.8133C206.463 41.4322 207.257 41.2425 208.061 41.263Z" fill="#032339"/>
<path d="M105.043 34.8887V51.764H101.719V34.8887H105.043ZM115.843 41.2628C116.79 41.2628 117.581 41.5456 118.216 42.1111C118.524 42.3789 118.77 42.7101 118.939 43.0822C119.107 43.4542 119.193 43.8581 119.19 44.2664V51.764H115.98V45.4587C115.934 44.4804 115.445 43.9912 114.513 43.9912C113.779 43.9912 113.191 44.3352 112.747 45.023C112.304 45.7109 112.082 46.5974 112.082 47.6827V51.764H108.872V41.7443H111.784L112.014 43.3493C112.368 42.7045 112.896 42.1722 113.538 41.8131C114.245 41.432 115.04 41.2423 115.843 41.2628ZM126.642 37.342V41.6984H129.072V44.1976H126.642V51.764H123.432V44.1976H121.873V41.6984H123.432V37.342H126.642ZM136.524 49.3106C137.166 49.3106 137.831 49.089 138.519 48.6457L139.94 51.0303C139.388 51.337 138.803 51.583 138.198 51.764C137.633 51.9401 137.046 52.0328 136.455 52.0391C135.263 52.0391 134.235 51.8137 133.371 51.3628C132.539 50.9427 131.856 50.2787 131.411 49.4596C130.956 48.5944 130.728 47.6283 130.746 46.6511C130.74 45.6946 131.006 44.7561 131.514 43.9455C132.028 43.1183 132.752 42.4419 133.612 41.9851C134.506 41.5017 135.508 41.2532 136.524 41.2628C137.961 41.2628 139.142 41.6831 140.066 42.5238C140.991 43.3645 141.591 44.5645 141.866 46.1238L134.529 48.4625C135.018 49.0279 135.683 49.3106 136.524 49.3106H136.524ZM136.272 43.762C135.554 43.762 134.981 44.0065 134.553 44.4957C134.125 44.9848 133.91 45.642 133.91 46.4671V46.6735L138.312 45.1832C137.991 44.2357 137.311 43.762 136.272 43.762H136.272ZM147.347 44.0371C147.632 43.4893 148.017 42.9994 148.481 42.5926C148.924 42.1908 149.422 41.8549 149.96 41.5953C150.465 41.3582 150.862 41.2397 151.152 41.2397L150.992 44.4497C150.863 44.432 150.732 44.4243 150.602 44.4268C149.998 44.4154 149.405 44.5916 148.905 44.9312C148.425 45.2579 148.037 45.7045 147.782 46.2267C147.528 46.728 147.395 47.2814 147.392 47.8431V51.764H144.205V41.7443H147.094L147.347 44.0371Z" fill="#FE8700"/>
<g filter="url(#filter0_d_2340_5112)">
<rect x="299" y="116" width="1111" height="110" rx="10" fill="white"/>
</g>
</g>
<rect x="0.5" y="0.5" width="1439" height="2299" stroke=""/>
<defs>
<filter id="filter0_d_2340_5112" x="251" y="70" width="1207" height="206" filterUnits="userSpaceOnUse" color-interpolation-filters="sRGB">
<feFlood flood-opacity="0" result="BackgroundImageFix"/>
<feColorMatrix in="SourceAlpha" type="matrix" values="0 0 0 0 0 0 0 0 0 0 0 0 0 0 0 0 0 0 127 0" result="hardAlpha"/>
<feOffset dy="2"/>
<feGaussianBlur stdDeviation="24"/>
<feColorMatrix type="matrix" values="0 0 0 0 0 0 0 0 0 0 0 0 0 0 0 0 0 0 0.04 0"/>
<feBlend mode="normal" in2="BackgroundImageFix" result="effect1_dropShadow_2340_5112"/>
<feBlend mode="normal" in="SourceGraphic" in2="effect1_dropShadow_2340_5112" result="shape"/>
</filter>
<clipPath id="clip0_2340_5112">
<rect width="1440" height="2300" fill="white"/>
</clipPath>
</defs>
</svg>
