<svg width="20" height="20" viewBox="0 0 20 20" fill="none" xmlns="http://www.w3.org/2000/svg">
<path d="M17.5 1.25H4.375C4 1.25 3.75 1.5 3.75 1.875V3.75H1.875C1.5 3.75 1.25 4 1.25 4.375V17.5C1.25 17.875 1.5 18.125 1.875 18.125H15C15.375 18.125 15.625 17.875 15.625 17.5V15.625H17.5C17.875 15.625 18.125 15.375 18.125 15V1.875C18.125 1.5 17.875 1.25 17.5 1.25ZM14.375 16.875H2.5V5H4.375H14.375V15V16.875ZM16.875 14.375H15.625V4.375C15.625 4 15.375 3.75 15 3.75H5V2.5H16.875V14.375Z" fill="#92929D"/>
<path d="M11.25 10.625H8.75V8.125C8.75 7.75 8.5 7.5 8.125 7.5C7.75 7.5 7.5 7.75 7.5 8.125V10.625H5C4.625 10.625 4.375 10.875 4.375 11.25C4.375 11.625 4.625 11.875 5 11.875H7.5V14.375C7.5 14.75 7.75 15 8.125 15C8.5 15 8.75 14.75 8.75 14.375V11.875H11.25C11.625 11.875 11.875 11.625 11.875 11.25C11.875 10.875 11.625 10.625 11.25 10.625Z" fill="#92929D"/>
</svg>
