<svg width="20" height="20" viewBox="0 0 20 20" fill="none" xmlns="http://www.w3.org/2000/svg">
<g clip-path="url(#clip0_922_795)">
<path d="M9.99997 3.37824C8.2665 3.37824 6.85648 4.78821 6.85648 6.52173C6.85648 8.25525 8.26646 9.66522 9.99997 9.66522C11.7335 9.66522 13.1435 8.2552 13.1435 6.52173C13.1435 4.78826 11.7335 3.37824 9.99997 3.37824ZM9.99997 8.59563C8.85695 8.59563 7.92607 7.66475 7.92607 6.52173C7.92607 5.37871 8.85695 4.44783 9.99997 4.44783C11.143 4.44783 12.0739 5.37871 12.0739 6.52173C12.0739 7.66475 11.143 8.59563 9.99997 8.59563Z" fill="#92929D" stroke="#92929D" stroke-width="0.2"/>
<path d="M16.087 6.85654C14.8335 6.85654 13.8131 7.87697 13.8131 9.13044C13.8131 10.3839 14.8335 11.4043 16.087 11.4043C17.3405 11.4043 18.3609 10.3839 18.3609 9.13044C18.3609 7.87697 17.3405 6.85654 16.087 6.85654ZM16.087 10.3348C15.4231 10.3348 14.8826 9.79436 14.8826 9.13044C14.8826 8.46653 15.4231 7.92609 16.087 7.92609C16.7509 7.92609 17.2913 8.46653 17.2913 9.13044C17.2913 9.79435 16.7509 10.3348 16.087 10.3348Z" fill="#92929D" stroke="#92929D" stroke-width="0.2"/>
<path d="M3.9748 6.85654C2.7204 6.85654 1.7009 7.87699 1.7009 9.13044C1.7009 10.3839 2.72133 11.4043 3.9748 11.4043C5.22828 11.4043 6.2487 10.3839 6.2487 9.13044C6.2487 7.87699 5.22916 6.85654 3.9748 6.85654ZM3.9748 10.3348C3.31089 10.3348 2.77045 9.79436 2.77045 9.13044C2.77045 8.46653 3.31089 7.92609 3.9748 7.92609C4.63872 7.92609 5.17915 8.46653 5.17915 9.13044C5.17915 9.79435 4.63868 10.3348 3.9748 10.3348Z" fill="#92929D" stroke="#92929D" stroke-width="0.2"/>
<path d="M9.99996 10.3348C6.8282 10.3348 4.24778 12.9152 4.24778 16.087C4.24778 16.3822 4.48735 16.6218 4.78257 16.6218C5.0778 16.6218 5.31737 16.3822 5.31737 16.087C5.31737 13.5048 7.4178 11.4044 9.99996 11.4044C12.5821 11.4044 14.6826 13.5048 14.6826 16.087C14.6826 16.3822 14.9221 16.6218 15.2174 16.6218C15.5126 16.6218 15.7521 16.3822 15.7521 16.087C15.7521 12.9152 13.1717 10.3348 9.99996 10.3348Z" fill="#92929D" stroke="#92929D" stroke-width="0.2"/>
<path d="M14.0082 12.6536L14.0082 12.6536L14.0078 12.6539C13.7569 12.8076 13.6753 13.1356 13.8284 13.3884L13.8284 13.3884L13.8287 13.3889C13.9833 13.6406 14.3105 13.7212 14.5631 13.5682L14.5632 13.5681C15.0213 13.2898 15.5477 13.1435 16.087 13.1435C17.71 13.1435 19.0305 14.4639 19.0305 16.087C19.0305 16.3822 19.27 16.6218 19.5653 16.6218C19.8605 16.6218 20.1 16.3822 20.1 16.087C20.1 13.8743 18.2996 12.0739 16.087 12.0739C15.3531 12.0739 14.6343 12.2746 14.0082 12.6536Z" fill="#92929D" stroke="#92929D" stroke-width="0.2"/>
<path d="M5.99123 12.6529L5.99089 12.6527C5.36568 12.2746 4.64694 12.0739 3.91304 12.0739C1.70042 12.0739 -0.1 13.8743 -0.1 16.087C-0.1 16.3822 0.139567 16.6218 0.434796 16.6218C0.730025 16.6218 0.969592 16.3822 0.969592 16.087C0.969552 14.4639 2.29002 13.1435 3.91304 13.1435C4.45228 13.1435 4.97859 13.2898 5.43585 13.5672C5.68755 13.7203 6.01677 13.6398 6.17059 13.3877C6.32489 13.1348 6.24304 12.8066 5.99123 12.6529Z" fill="#92929D" stroke="#92929D" stroke-width="0.2"/>
</g>
<defs>
<clipPath id="clip0_922_795">
<rect width="20" height="20" fill="white"/>
</clipPath>
</defs>
</svg>
