<svg width="166" height="154" viewBox="0 0 166 154" fill="none" xmlns="http://www.w3.org/2000/svg">
<rect width="166" height="154" fill="#E5E5E5"/>
<g clip-path="url(#clip0_0_1)">
<rect width="1440" height="2305" transform="translate(-373 -216)" fill="white"/>
<g filter="url(#filter0_d_0_1)">
<rect x="-52" y="-20" width="1063" height="2065" rx="16" fill="#FE8700" fill-opacity="0.85" shape-rendering="crispEdges"/>
</g>
<ellipse cx="82.6341" cy="77" rx="82.6341" ry="77" fill="#C4C4C4"/>
<path d="M70.7331 57.3333H67.7998V60.2666H70.7331V57.3333Z" fill="black"/>
<path d="M70.7331 63.2H67.7998V66.1333H70.7331V63.2Z" fill="black"/>
<path d="M70.7331 69.0667H67.7998V72H70.7331V69.0667Z" fill="black"/>
<path d="M70.7331 74.9333H67.7998V77.8667H70.7331V74.9333Z" fill="black"/>
<path d="M76.6003 57.3333H73.667V60.2666H76.6003V57.3333Z" fill="black"/>
<path d="M76.6003 63.2H73.667V66.1333H76.6003V63.2Z" fill="black"/>
<path d="M76.6003 69.0667H73.667V72H76.6003V69.0667Z" fill="black"/>
<path d="M76.6003 74.9333H73.667V77.8667H76.6003V74.9333Z" fill="black"/>
<path d="M82.4665 57.3333H79.5332V60.2666H82.4665V57.3333Z" fill="black"/>
<path d="M82.4665 63.2H79.5332V66.1333H82.4665V63.2Z" fill="black"/>
<path d="M82.4665 69.0667H79.5332V72H82.4665V69.0667Z" fill="black"/>
<path d="M82.4665 74.9333H79.5332V77.8667H82.4665V74.9333Z" fill="black"/>
<path d="M88.3337 57.3333H85.4004V60.2666H88.3337V57.3333Z" fill="black"/>
<path d="M76.6003 51.4666H73.667V54.3999H76.6003V51.4666Z" fill="black"/>
<path d="M82.4665 51.4666H79.5332V54.3999H82.4665V51.4666Z" fill="black"/>
<path d="M88.3337 51.4666H85.4004V54.3999H88.3337V51.4666Z" fill="black"/>
<path d="M88.3337 63.2H85.4004V66.1333H88.3337V63.2Z" fill="black"/>
<path d="M88.3337 69.0667H85.4004V72H88.3337V69.0667Z" fill="black"/>
<path d="M88.3337 74.9333H85.4004V77.8667H88.3337V74.9333Z" fill="black"/>
<path d="M94.1999 57.3333H91.2666V60.2666H94.1999V57.3333Z" fill="black"/>
<path d="M94.1999 63.2H91.2666V66.1333H94.1999V63.2Z" fill="black"/>
<path d="M94.1999 69.0667H91.2666V72H94.1999V69.0667Z" fill="black"/>
<path d="M94.1999 74.9333H91.2666V77.8667H94.1999V74.9333Z" fill="black"/>
<path d="M123.535 50C123.534 50 123.534 50 123.533 50H101.533V29.4667C101.534 28.6571 100.878 28.0006 100.068 28C100.068 28 100.067 28 100.067 28H61.9333C61.1237 27.9995 60.4672 28.6554 60.4667 29.465C60.4667 29.4656 60.4667 29.4661 60.4667 29.4667V50H38.4667C37.6571 49.9995 37.0006 50.6554 37 51.465C37 51.4656 37 51.4661 37 51.4667V104.267C36.9995 105.076 37.6554 105.733 38.465 105.733C38.4656 105.733 38.4661 105.733 38.4667 105.733H41.5326C41.4475 106.218 41.4031 106.708 41.4 107.2V114.533C41.3995 115.343 42.0554 115.999 42.865 116C42.8656 116 42.8661 116 42.8667 116H119.133C119.943 116.001 120.599 115.345 120.6 114.535C120.6 114.534 120.6 114.534 120.6 114.533V107.2C120.597 106.708 120.553 106.218 120.467 105.733H123.533C124.343 105.734 124.999 105.078 125 104.268C125 104.268 125 104.267 125 104.267V51.4667C125.001 50.6571 124.345 50.0006 123.535 50ZM100.067 91.0667C100.067 92.6868 98.7535 94 97.1333 94C95.5132 94 94.2 92.6868 94.2 91.0667C94.2 89.4466 95.5132 88.1333 97.1333 88.1333C98.7525 88.1354 100.065 89.4475 100.067 91.0667ZM64.8667 88.1333C66.4868 88.1333 67.8 89.4466 67.8 91.0667C67.8 92.6868 66.4868 94 64.8667 94C63.2466 94 61.9333 92.6868 61.9333 91.0667C61.9354 89.4475 63.2475 88.1354 64.8667 88.1333ZM56.0667 113.067H44.3333V107.2C44.3333 103.96 46.96 101.333 50.2 101.333C53.4401 101.333 56.0667 103.96 56.0667 107.2V113.067ZM47.2667 95.4667C47.2667 93.8465 48.5799 92.5333 50.2 92.5333C51.8201 92.5333 53.1333 93.8465 53.1333 95.4667C53.1333 97.0868 51.8201 98.4 50.2 98.4C48.5808 98.398 47.2687 97.0859 47.2667 95.4667ZM56.2889 100.861C55.7358 100.328 55.1155 99.8687 54.4438 99.4956C56.6808 97.1519 56.5945 93.4383 54.2508 91.201C51.907 88.9638 48.1934 89.0504 45.9562 91.3941C43.7923 93.661 43.7923 97.2285 45.9562 99.4954C44.5563 100.272 43.3932 101.414 42.5906 102.8H39.9333V52.9333H60.4667V87.2269C58.4526 89.4869 58.5206 92.9174 60.6229 95.0956C58.4229 96.3124 56.8464 98.4097 56.2889 100.861ZM70.7333 113.067H59V102.8C59 99.56 61.6266 96.9333 64.8667 96.9333C68.1067 96.9333 70.7333 99.56 70.7333 102.8V113.067ZM88.3333 113.067H73.6667V102.8C73.6667 98.75 76.95 95.4667 81 95.4667C85.05 95.4667 88.3333 98.75 88.3333 102.8V113.067ZM76.6 88.1333C76.6 85.7033 78.5699 83.7333 81 83.7333C83.4301 83.7333 85.4 85.7033 85.4 88.1333C85.4 90.5634 83.4301 92.5333 81 92.5333C78.571 92.5308 76.6026 90.5623 76.6 88.1333ZM89.9324 97.7574C88.9502 96.026 87.4891 94.6153 85.7243 93.6947C88.8221 91.0855 89.2181 86.4591 86.6091 83.3614C83.9999 80.2636 79.3735 79.8676 76.2757 82.4766C73.1779 85.0858 72.7819 89.7122 75.3909 92.81C75.66 93.1295 75.956 93.4254 76.2757 93.6947C74.5109 94.6153 73.0498 96.026 72.0676 97.7574C71.2965 96.6574 70.2853 95.7472 69.1105 95.0956C71.3591 92.7953 71.3172 89.1076 69.0168 86.859C67.5356 85.411 65.3971 84.8588 63.4 85.4083V30.9333H98.6V85.4083C98.1221 85.2764 97.6291 85.2064 97.1333 85.2C93.9019 85.1914 91.2753 87.8041 91.2667 91.0357C91.2626 92.5478 91.8443 94.0029 92.8895 95.0956C91.7147 95.7472 90.7035 96.6574 89.9324 97.7574ZM103 107.2V113.067H91.2667V102.8C91.2667 99.56 93.8933 96.9333 97.1333 96.9333C100.373 96.9333 103 99.56 103 102.8V107.2ZM117.667 113.067H105.933V107.2C105.933 103.96 108.56 101.333 111.8 101.333C115.04 101.333 117.667 103.96 117.667 107.2V113.067ZM108.867 95.4667C108.867 93.8465 110.18 92.5333 111.8 92.5333C113.42 92.5333 114.733 93.8465 114.733 95.4667C114.733 97.0868 113.42 98.4 111.8 98.4C110.181 98.398 108.869 97.0859 108.867 95.4667ZM122.067 102.8H119.409C118.607 101.415 117.444 100.273 116.044 99.4956C118.281 97.1519 118.194 93.4383 115.851 91.201C113.507 88.964 109.793 89.0504 107.556 91.3941C105.392 93.661 105.392 97.2285 107.556 99.4954C106.884 99.8685 106.264 100.328 105.711 100.861C105.154 98.4095 103.577 96.3122 101.377 95.0954C103.479 92.9172 103.548 89.4867 101.534 87.2267V52.9333H122.067V102.8H122.067Z" fill="black"/>
<path d="M108.867 61.7334H105.934V85.2001H108.867V61.7334Z" fill="black"/>
<path d="M117.667 61.7334H114.733V85.2001H117.667V61.7334Z" fill="black"/>
<path d="M47.2663 61.7334H44.333V85.2001H47.2663V61.7334Z" fill="black"/>
<path d="M56.0671 61.7334H53.1338V85.2001H56.0671V61.7334Z" fill="black"/>
<path d="M89.8017 33.8667C89.8012 33.8667 89.8006 33.8667 89.8001 33.8667H72.2001C71.3905 33.8661 70.7339 34.5221 70.7334 35.3317C70.7334 35.3323 70.7334 35.3328 70.7334 35.3334V47.0667C70.7328 47.8763 71.3888 48.5328 72.1984 48.5334C72.199 48.5334 72.1995 48.5334 72.2001 48.5334H89.8001C90.6097 48.5339 91.2662 47.8779 91.2667 47.0683C91.2667 47.0678 91.2667 47.0672 91.2667 47.0667V35.3334C91.2673 34.5238 90.6113 33.8672 89.8017 33.8667ZM88.3334 45.6H73.6667V36.8H88.3334V45.6Z" fill="black"/>
</g>
<defs>
<filter id="filter0_d_0_1" x="-56" y="-20" width="1071" height="2073" filterUnits="userSpaceOnUse" color-interpolation-filters="sRGB">
<feFlood flood-opacity="0" result="BackgroundImageFix"/>
<feColorMatrix in="SourceAlpha" type="matrix" values="0 0 0 0 0 0 0 0 0 0 0 0 0 0 0 0 0 0 127 0" result="hardAlpha"/>
<feOffset dy="4"/>
<feGaussianBlur stdDeviation="2"/>
<feComposite in2="hardAlpha" operator="out"/>
<feColorMatrix type="matrix" values="0 0 0 0 0 0 0 0 0 0 0 0 0 0 0 0 0 0 0.25 0"/>
<feBlend mode="normal" in2="BackgroundImageFix" result="effect1_dropShadow_0_1"/>
<feBlend mode="normal" in="SourceGraphic" in2="effect1_dropShadow_0_1" result="shape"/>
</filter>
<clipPath id="clip0_0_1">
<rect width="1440" height="2305" fill="white" transform="translate(-373 -216)"/>
</clipPath>
</defs>
</svg>
