<svg width="153" height="30" viewBox="0 0 153 30" fill="none" xmlns="http://www.w3.org/2000/svg">
<path fill-rule="evenodd" clip-rule="evenodd" d="M0 17.1267C1.31522 19.4044 2.63165 21.6817 3.94932 23.9584L34.771 16.5817L40.673 15L0 17.1267Z" fill="#FE8700"/>
<path fill-rule="evenodd" clip-rule="evenodd" d="M40.1817 15.8496L11.9688 25.2504L13.8349 28.4827C14.0953 28.9485 14.4767 29.3353 14.9388 29.6021C15.401 29.869 15.9267 30.0059 16.4603 29.9985H30.2583C30.7918 30.0059 31.3175 29.8689 31.7796 29.6021C32.2417 29.3352 32.6231 28.9485 32.8835 28.4827L36.3397 22.4965L36.3433 22.4986L39.4909 17.0472L32.1536 21.1228L29.5297 25.6674H22.5072L32.8379 19.9291L40.1817 15.8496Z" fill="#F7F8FA"/>
<path fill-rule="evenodd" clip-rule="evenodd" d="M35.288 14.3163L40.3438 14.4319L40.3418 14.4283L35.0771 13.9509L12.7525 12.0207L17.1873 4.33118H29.5281L32.6029 9.65707V9.66553L34.6482 13.208L35.1339 13.2419L39.9068 13.6746L36.3417 7.49996L36.3381 7.50204L32.882 1.51577C32.6215 1.05004 32.2401 0.66334 31.778 0.396574C31.3158 0.129807 30.7902 -0.00711207 30.2566 0.000285765H16.4585C15.9249 -0.00712751 15.3993 0.129819 14.9371 0.396634C14.475 0.663449 14.0935 1.05022 13.8331 1.51602L10.377 7.50229C9.06331 9.7738 8.06182 11.5038 6.75 13.7762L35.288 14.3163Z" fill="#F7F8FA"/>
<path d="M108.219 12.7758C109.197 12.7758 109.98 13.0509 110.569 13.6012C111.157 14.1515 111.467 14.8775 111.497 15.7794V23.2999H108.31V17.1092C108.28 16.6048 108.196 16.2265 108.058 15.9743C107.921 15.7222 107.653 15.5807 107.256 15.5501C106.507 15.5501 105.922 15.9131 105.502 16.6393C105.081 17.3654 104.871 18.2175 104.871 19.1957V23.2999H101.661V17.1092C101.63 16.6048 101.539 16.2265 101.386 15.9743C101.233 15.7222 100.95 15.5807 100.537 15.5501C99.819 15.5501 99.2535 15.9131 98.8408 16.6393C98.4175 17.4072 98.2039 18.2731 98.2217 19.1499V23.2999H95.0117V13.2802H97.9244L98.1536 14.8619C98.9638 13.4709 100.171 12.7754 101.776 12.7754C102.586 12.7754 103.255 12.9397 103.783 13.2684C104.314 13.6018 104.702 14.1207 104.872 14.7243C105.276 14.1501 105.795 13.666 106.396 13.3027C106.944 12.9631 107.574 12.7808 108.219 12.7758ZM125.575 13.2802V23.2999H122.365V22.0615C121.402 23.0704 120.287 23.5748 119.018 23.5748C117.536 23.575 116.332 23.1318 115.407 22.2454C114.481 21.359 114.019 20.0444 114.019 18.3015C114.019 17.2009 114.245 16.2341 114.696 15.401C115.112 14.6058 115.733 13.9367 116.496 13.4637C117.218 13.0129 118.052 12.7745 118.903 12.7759C119.79 12.7759 120.493 12.9096 121.012 13.1771C121.545 13.4553 122.014 13.8419 122.388 14.3121L122.594 13.2803L125.575 13.2802ZM119.935 20.9612C121.051 20.9612 121.861 20.4568 122.366 19.4479V16.9946C122.186 16.5104 121.852 16.0993 121.414 15.8252C120.937 15.5273 120.383 15.3759 119.82 15.3896C119.482 15.3854 119.147 15.4527 118.837 15.587C118.527 15.7214 118.248 15.9198 118.02 16.1692C117.523 16.6889 117.275 17.3462 117.275 18.141C117.27 18.6425 117.397 19.1365 117.642 19.5741C117.871 19.9939 118.208 20.3459 118.616 20.5943C119.013 20.8367 119.47 20.9637 119.935 20.9612H119.935ZM135.847 12.7987C136.795 12.7987 137.586 13.0815 138.22 13.647C138.529 13.9148 138.775 14.246 138.944 14.618C139.112 14.99 139.198 15.394 139.195 15.8023V23.2999H135.986V16.9946C135.94 16.0163 135.451 15.5272 134.518 15.5272C133.784 15.5272 133.196 15.8711 132.752 16.5589C132.309 17.2468 132.087 18.1334 132.088 19.2186V23.2999H128.878V13.2802H131.789L132.019 14.8852C132.373 14.2405 132.901 13.7082 133.543 13.349C134.25 12.968 135.044 12.7783 135.847 12.7987ZM149.467 12.7987C150.415 12.7987 151.206 13.0815 151.84 13.647C152.148 13.9148 152.395 14.2461 152.563 14.6181C152.731 14.9901 152.817 15.3941 152.814 15.8023V23.2999H149.604V16.9946C149.559 16.0163 149.069 15.5272 148.137 15.5272C147.403 15.5272 146.815 15.8711 146.371 16.5589C145.928 17.2468 145.706 18.1334 145.706 19.2186V23.2999H142.496V13.2802H145.408L145.637 14.8852C145.992 14.2405 146.52 13.7082 147.162 13.349C147.869 12.9679 148.664 12.7782 149.467 12.7987Z" fill="#F7F8FA"/>
<path d="M46.4496 6.42383V23.2991H43.125V6.42383H46.4496ZM57.2489 12.7979C58.1966 12.7979 58.9876 13.0807 59.6219 13.6463C59.9301 13.9141 60.1767 14.2453 60.3449 14.6173C60.5131 14.9893 60.5989 15.3933 60.5964 15.8015V23.2991H57.3865V16.9938C57.3406 16.0155 56.8515 15.5264 55.9191 15.5264C55.1853 15.5264 54.5968 15.8703 54.1534 16.5582C53.7101 17.246 53.4884 18.1326 53.4885 19.2179V23.2991H50.2787V13.2794H53.1906L53.4199 14.8844C53.7743 14.2397 54.3026 13.7074 54.9447 13.3482C55.6517 12.9672 56.446 12.7775 57.2489 12.7979ZM68.0482 8.87717V13.2336H70.4786V15.7328H68.0482V23.2991H64.8382V15.7328H63.2791V13.2336H64.8382V8.87717H68.0482ZM77.9307 20.8458C78.5727 20.8458 79.2376 20.6242 79.9255 20.1809L81.3467 22.5654C80.794 22.8721 80.2097 23.1181 79.6041 23.2991C79.0397 23.4753 78.4527 23.5679 77.8615 23.5743C76.6693 23.5743 75.6413 23.3488 74.7776 22.8979C73.9457 22.4778 73.2618 21.8139 72.8173 20.9948C72.3625 20.1296 72.1338 19.1635 72.1524 18.1862C72.1462 17.2297 72.4127 16.2912 72.9205 15.4807C73.4345 14.6534 74.1583 13.977 75.0184 13.5202C75.9123 13.0369 76.9142 12.7883 77.9303 12.7979C79.3672 12.7979 80.548 13.2183 81.4727 14.059C82.3974 14.8997 82.9973 16.0997 83.2724 17.659L75.9353 19.9977C76.4246 20.5631 77.0896 20.8458 77.9303 20.8458H77.9307ZM77.6785 15.2971C76.9601 15.2971 76.3868 15.5417 75.9588 16.0308C75.5308 16.52 75.3167 17.1771 75.3165 18.0023V18.2087L79.7182 16.7183C79.3976 15.7709 78.7175 15.2971 77.6781 15.2971H77.6785ZM88.7531 15.5723C89.0382 15.0244 89.4229 14.5346 89.8875 14.1278C90.33 13.726 90.8281 13.3901 91.3664 13.1304C91.8708 12.8934 92.2682 12.7749 92.5586 12.7749L92.3981 15.9848C92.269 15.9672 92.1387 15.9595 92.0084 15.9619C91.4042 15.9506 90.8115 16.1268 90.3117 16.4663C89.8308 16.7931 89.4436 17.2396 89.1882 17.7619C88.9346 18.2631 88.8011 18.8165 88.7984 19.3783V23.2991H85.6113V13.2794H88.5003L88.7531 15.5723Z" fill="#FE8700"/>
</svg>
