<svg width="41" height="40" viewBox="0 0 41 40" fill="none" xmlns="http://www.w3.org/2000/svg">
<rect width="41" height="40" fill="#E5E5E5"/>
<g clip-path="url(#clip0_922_333)">
<rect x="-691" y="-639" width="1440" height="1500" fill="#F7F8FA"/>
<g filter="url(#filter0_d_922_333)">
<rect x="-389.939" y="-119.527" width="1111" height="77.5264" rx="10" fill="white"/>
</g>
<g filter="url(#filter1_d_922_333)">
<rect x="-389.939" y="-20.1777" width="350" height="125" rx="10" fill="white"/>
</g>
<g filter="url(#filter2_d_922_333)">
<rect x="-20" y="-20" width="350" height="125" rx="10" fill="white"/>
</g>
<circle cx="20.168" cy="20" r="20" fill="#FFF7EE"/>
<path d="M18.2771 16.4988L16.0968 15.8447V15.3305C16.7281 14.8896 17.1129 14.1621 17.1129 13.3871V12.371C17.1129 11.0639 16.0493 10 14.7419 10C13.4346 10 12.371 11.0639 12.371 12.371V13.3871C12.371 14.1621 12.7558 14.89 13.3871 15.3305V15.8447L11.2068 16.4988C10.4851 16.7153 10 17.3673 10 18.1213V21.1774H12.603C12.456 21.486 12.371 21.8297 12.371 22.1935V23.2097C12.371 23.9847 12.7558 24.7125 13.3871 25.1531V25.6673L11.2068 26.3214C10.4851 26.5379 10 27.1898 10 27.9438V31H19.4839V27.9438C19.4839 27.1898 18.9988 26.5382 18.2771 26.3214L16.0968 25.6673V25.1531C16.7281 24.7122 17.1129 23.9847 17.1129 23.2097V22.1935C17.1129 21.8297 17.0279 21.486 16.8809 21.1774H19.4839V18.1213C19.4839 17.3673 18.9988 16.7153 18.2771 16.4988ZM16.4355 23.2097C16.4355 23.8105 16.111 24.3722 15.5884 24.6747L15.4194 24.7724V26.1714L18.0822 26.97C18.5155 27.1 18.8065 27.4917 18.8065 27.9438V30.3226H10.6774V27.9438C10.6774 27.4917 10.9683 27.1004 11.4016 26.9704L14.0645 26.1714V24.7724L13.8955 24.6747C13.3729 24.3722 13.0484 23.8105 13.0484 23.2097V22.1935C13.0484 21.2598 13.8082 20.5 14.7419 20.5C15.6757 20.5 16.4355 21.2598 16.4355 22.1935V23.2097ZM18.8065 20.5H16.3979C15.9701 20.0817 15.3858 19.8226 14.7419 19.8226C14.0787 19.8226 13.4792 20.097 13.0484 20.5375V20.5H10.6774V18.1213C10.6774 17.6691 10.9683 17.2778 11.4016 17.1478L14.0645 16.3488V14.9498L13.8955 14.8521C13.3729 14.5496 13.0484 13.9879 13.0484 13.3871V12.371C13.0484 11.4372 13.8082 10.6774 14.7419 10.6774C15.6757 10.6774 16.4355 11.4372 16.4355 12.371V13.3871C16.4355 13.9879 16.111 14.5496 15.5884 14.8521L15.4194 14.9498V16.3488L18.0822 17.1475C18.5155 17.2775 18.8065 17.6691 18.8065 18.1213V20.5Z" fill="#FE8700"/>
<path d="M31 21.8548C31 20.5663 30.4818 19.3979 29.6451 18.5427V18.1213C29.6451 17.3673 29.16 16.7156 28.4383 16.4988L26.258 15.8447V15.3305C26.8893 14.8896 27.2742 14.1621 27.2742 13.3871V12.371C27.2742 11.0639 26.2106 10 24.9032 10C23.5958 10 22.5322 11.0639 22.5322 12.371V13.3871C22.5322 14.1621 22.9171 14.89 23.5484 15.3305V15.8447L21.3681 16.4988C20.6463 16.7153 20.1613 17.3673 20.1613 18.1213V21.1774H21.5703C21.5381 21.3992 21.5161 21.6241 21.5161 21.8548C21.5161 23.9986 22.9472 25.8124 24.9032 26.397V27.2742H24.2258V27.9516H24.9032V28.629H24.2258V29.3065H24.9032V31H27.6129V29.3065H28.2903V28.629H27.6129V27.9516H28.2903V27.2742H27.6129V26.397C29.5689 25.8124 31 23.9986 31 21.8548ZM20.8387 20.5V18.1213C20.8387 17.6691 21.1296 17.2778 21.5629 17.1478L24.2258 16.3488V14.9498L24.0567 14.8521C23.5341 14.5496 23.2096 13.9879 23.2096 13.3871V12.371C23.2096 11.4372 23.9694 10.6774 24.9032 10.6774C25.837 10.6774 26.5967 11.4372 26.5967 12.371V13.3871C26.5967 13.9879 26.2723 14.5496 25.7496 14.8521L25.5806 14.9498V16.3488L28.2435 17.1475C28.6239 17.2616 28.8946 17.5776 28.9548 17.959C28.1884 17.4268 27.2596 17.1129 26.258 17.1129C24.1143 17.1129 22.3005 18.544 21.7159 20.5H20.8387ZM22.1935 21.8548C22.1935 19.6135 24.0167 17.7903 26.258 17.7903C28.4993 17.7903 30.3225 19.6135 30.3225 21.8548C30.3225 24.0961 28.4993 25.9194 26.258 25.9194C24.0167 25.9194 22.1935 24.0961 22.1935 21.8548ZM26.9354 30.3226H25.5806V29.3065H26.9354V30.3226ZM26.9354 28.629H25.5806V27.9516H26.9354V28.629ZM26.9354 27.2742H25.5806V26.5425C25.8024 26.5744 26.0273 26.5968 26.258 26.5968C26.4887 26.5968 26.7137 26.5748 26.9354 26.5425V27.2742Z" fill="#FE8700"/>
<path d="M25.242 22.7307L24.804 22.2928L24.3251 22.7717L25.242 23.6886L28.1911 20.7395L27.7122 20.2605L25.242 22.7307Z" fill="#FE8700"/>
<path d="M28.3709 24.5002L27.9478 23.9711C27.4626 24.3593 26.8783 24.5645 26.2581 24.5645C24.764 24.5645 23.5484 23.3489 23.5484 21.8548C23.5484 21.235 23.7536 20.6503 24.1421 20.1651L23.6131 19.7417C23.1277 20.349 22.871 21.0795 22.871 21.8548C22.871 23.7225 24.3904 25.2419 26.2581 25.2419C27.0337 25.2419 27.7642 24.9852 28.3709 24.5002V24.5002Z" fill="#FE8700"/>
<path d="M26.2581 19.1452C27.7522 19.1452 28.9677 20.3607 28.9677 21.8548C28.9677 22.4747 28.7625 23.0593 28.374 23.5443L28.9031 23.9676C29.3885 23.3607 29.6452 22.6302 29.6452 21.8548C29.6452 19.9871 28.1258 18.4677 26.2581 18.4677C25.4824 18.4677 24.7519 18.7244 24.1453 19.2095L24.5683 19.7386C25.0536 19.3504 25.6379 19.1452 26.2581 19.1452Z" fill="#FE8700"/>
</g>
<rect x="-690.5" y="-638.5" width="1439" height="1499" stroke="black"/>
<defs>
<filter id="filter0_d_922_333" x="-437.939" y="-165.527" width="1207" height="173.526" filterUnits="userSpaceOnUse" color-interpolation-filters="sRGB">
<feFlood flood-opacity="0" result="BackgroundImageFix"/>
<feColorMatrix in="SourceAlpha" type="matrix" values="0 0 0 0 0 0 0 0 0 0 0 0 0 0 0 0 0 0 127 0" result="hardAlpha"/>
<feOffset dy="2"/>
<feGaussianBlur stdDeviation="24"/>
<feColorMatrix type="matrix" values="0 0 0 0 0 0 0 0 0 0 0 0 0 0 0 0 0 0 0.04 0"/>
<feBlend mode="normal" in2="BackgroundImageFix" result="effect1_dropShadow_922_333"/>
<feBlend mode="normal" in="SourceGraphic" in2="effect1_dropShadow_922_333" result="shape"/>
</filter>
<filter id="filter1_d_922_333" x="-437.939" y="-66.1777" width="446" height="221" filterUnits="userSpaceOnUse" color-interpolation-filters="sRGB">
<feFlood flood-opacity="0" result="BackgroundImageFix"/>
<feColorMatrix in="SourceAlpha" type="matrix" values="0 0 0 0 0 0 0 0 0 0 0 0 0 0 0 0 0 0 127 0" result="hardAlpha"/>
<feOffset dy="2"/>
<feGaussianBlur stdDeviation="24"/>
<feColorMatrix type="matrix" values="0 0 0 0 0 0 0 0 0 0 0 0 0 0 0 0 0 0 0.04 0"/>
<feBlend mode="normal" in2="BackgroundImageFix" result="effect1_dropShadow_922_333"/>
<feBlend mode="normal" in="SourceGraphic" in2="effect1_dropShadow_922_333" result="shape"/>
</filter>
<filter id="filter2_d_922_333" x="-68" y="-66" width="446" height="221" filterUnits="userSpaceOnUse" color-interpolation-filters="sRGB">
<feFlood flood-opacity="0" result="BackgroundImageFix"/>
<feColorMatrix in="SourceAlpha" type="matrix" values="0 0 0 0 0 0 0 0 0 0 0 0 0 0 0 0 0 0 127 0" result="hardAlpha"/>
<feOffset dy="2"/>
<feGaussianBlur stdDeviation="24"/>
<feColorMatrix type="matrix" values="0 0 0 0 0 0 0 0 0 0 0 0 0 0 0 0 0 0 0.04 0"/>
<feBlend mode="normal" in2="BackgroundImageFix" result="effect1_dropShadow_922_333"/>
<feBlend mode="normal" in="SourceGraphic" in2="effect1_dropShadow_922_333" result="shape"/>
</filter>
<clipPath id="clip0_922_333">
<rect x="-691" y="-639" width="1440" height="1500" fill="white"/>
</clipPath>
</defs>
</svg>
