<svg width="13" height="16" viewBox="0 0 13 16" fill="none" xmlns="http://www.w3.org/2000/svg">
<path d="M11.6853 1.44159C11.3609 1.11653 10.9295 0.9375 10.4706 0.9375H9.69531V0.78125C9.69531 0.350469 9.34485 0 8.91406 0H3.28906C2.85828 0 2.50781 0.350469 2.50781 0.78125V0.9375H1.72978C0.784126 0.9375 0.0139073 1.70769 0.0128448 2.65434L1.04849e-06 14.2793C-0.000498952 14.7388 0.177845 15.1708 0.502189 15.4959C0.826564 15.821 1.25797 16 1.71694 16H10.4577C11.4034 16 12.1736 15.2298 12.1746 14.2832L12.1875 2.65816C12.188 2.19869 12.0097 1.76663 11.6853 1.44159ZM3.44531 0.9375H8.75781V1.875H3.44531V0.9375ZM11.2381 14.2821C11.2376 14.7124 10.8875 15.0625 10.4577 15.0625H1.71694C1.50831 15.0625 1.31222 14.9811 1.16478 14.8334C1.01735 14.6856 0.936283 14.4892 0.936501 14.2804L0.949345 2.65541C0.949814 2.22506 1.29991 1.875 1.72978 1.875H2.50781V2.03125C2.50781 2.46203 2.85828 2.8125 3.28906 2.8125H8.91406C9.34485 2.8125 9.69531 2.46203 9.69531 2.03125V1.875H10.4706C10.6792 1.875 10.8753 1.95638 11.0227 2.10413C11.1702 2.25187 11.2513 2.44828 11.251 2.65709L11.2381 14.2821Z" fill="#92929D"/>
<path d="M6.25366 6.25H9.58401C9.84288 6.25 10.0528 6.04013 10.0528 5.78125C10.0528 5.52237 9.84288 5.3125 9.58401 5.3125H6.25366C5.99479 5.3125 5.78491 5.52237 5.78491 5.78125C5.78491 6.04013 5.99479 6.25 6.25366 6.25Z" fill="#92929D"/>
<path d="M6.25366 9.375H9.58401C9.84288 9.375 10.0528 9.16513 10.0528 8.90625C10.0528 8.64737 9.84288 8.4375 9.58401 8.4375H6.25366C5.99479 8.4375 5.78491 8.64737 5.78491 8.90625C5.78491 9.16513 5.99479 9.375 6.25366 9.375Z" fill="#92929D"/>
<path d="M9.59741 11.5625H6.25366C5.99479 11.5625 5.78491 11.7724 5.78491 12.0312C5.78491 12.2901 5.99479 12.5 6.25366 12.5H9.59741C9.85629 12.5 10.0662 12.2901 10.0662 12.0312C10.0662 11.7724 9.85632 11.5625 9.59741 11.5625Z" fill="#92929D"/>
<path d="M4.25742 4.50509L3.17642 5.58609L2.92154 5.33118C2.73848 5.14812 2.4417 5.14812 2.25863 5.33118C2.07557 5.51422 2.07557 5.81103 2.25863 5.99409L2.84498 6.58047C2.93288 6.66837 3.0521 6.71778 3.17645 6.71778C3.30076 6.71778 3.41998 6.6684 3.50788 6.58047L4.92035 5.16803C5.10342 4.985 5.10342 4.68818 4.92035 4.50512C4.73729 4.32203 4.44051 4.32203 4.25742 4.50509Z" fill="#92929D"/>
<path d="M4.25742 7.86871L3.17642 8.94971L2.92154 8.69484C2.73848 8.51178 2.4417 8.51178 2.25863 8.69484C2.07557 8.87787 2.07557 9.17465 2.25863 9.35775L2.84498 9.94412C2.93288 10.032 3.0521 10.0814 3.17645 10.0814C3.30076 10.0814 3.42001 10.0321 3.50788 9.94412L4.92035 8.53165C5.10342 8.34862 5.10342 8.05181 4.92035 7.86875C4.73729 7.68568 4.44048 7.68568 4.25742 7.86871Z" fill="#92929D"/>
<path d="M4.25742 10.9937L3.17642 12.0747L2.92154 11.8198C2.73848 11.6368 2.4417 11.6368 2.25863 11.8198C2.07557 12.0029 2.07557 12.2997 2.25863 12.4827L2.84498 13.0691C2.93288 13.157 3.0521 13.2064 3.17645 13.2064C3.30076 13.2064 3.42001 13.1571 3.50788 13.0691L4.92035 11.6567C5.10342 11.4736 5.10342 11.1768 4.92035 10.9937C4.73729 10.8107 4.44048 10.8107 4.25742 10.9937Z" fill="#92929D"/>
</svg>
