<svg width="16" height="17" viewBox="0 0 16 17" fill="none" xmlns="http://www.w3.org/2000/svg">
<path d="M14.0007 2.64905H4.00416C3.45208 2.64905 3.00452 3.09661 3.00452 3.6487C3.00452 4.20078 3.45208 4.64834 4.00416 4.64834H14.0007C14.5527 4.64834 15.0003 4.20078 15.0003 3.6487C15.0003 3.09661 14.5527 2.64905 14.0007 2.64905Z" fill="#999FA9"/>
<path d="M2.0049 3.64864C2.00377 3.38395 1.89772 3.13051 1.71 2.94389C1.32011 2.5563 0.69039 2.5563 0.300496 2.94389C0.112749 3.13051 0.00669296 3.38395 0.00559959 3.64864C-0.00186653 3.7134 -0.00186653 3.77881 0.00559959 3.84357C0.0169081 3.9087 0.0353391 3.9724 0.0605803 4.0335C0.0874146 4.0927 0.119185 4.14955 0.155547 4.20344C0.19144 4.25949 0.233332 4.31144 0.280503 4.35839C0.325987 4.40368 0.376251 4.44392 0.43045 4.47835C0.483088 4.51668 0.540162 4.54857 0.60039 4.57331C0.666648 4.60768 0.73728 4.63292 0.810317 4.64829C0.875075 4.65553 0.94049 4.65553 1.00525 4.64829C1.26922 4.6485 1.52257 4.54429 1.71 4.35839C1.75717 4.31144 1.79906 4.25949 1.83496 4.20344C1.87132 4.14955 1.90309 4.0927 1.92992 4.0335C1.96182 3.97315 1.98697 3.90945 2.0049 3.84357C2.01236 3.77881 2.01236 3.7134 2.0049 3.64864Z" fill="#999FA9"/>
<path d="M2.00491 8.14705C2.01235 8.08229 2.01235 8.01688 2.00491 7.95212C1.98764 7.88761 1.96246 7.82551 1.92994 7.76718C1.9042 7.70586 1.87236 7.64726 1.83497 7.59225C1.80033 7.53683 1.75828 7.48638 1.71002 7.4423C1.32012 7.05472 0.690406 7.05472 0.300512 7.4423C0.112765 7.62892 0.0067086 7.88236 0.00561523 8.14705C0.00755205 8.27879 0.0329494 8.40908 0.0805889 8.53192C0.105643 8.59105 0.135757 8.64791 0.170557 8.70186C0.208575 8.75618 0.252122 8.80644 0.300512 8.8518C0.344683 8.89997 0.395103 8.94202 0.450459 8.97676C0.503096 9.01512 0.560139 9.04702 0.620399 9.07173C0.681346 9.09737 0.745105 9.11583 0.810332 9.12671C0.874278 9.14104 0.939724 9.14776 1.00526 9.1467C1.07002 9.15417 1.13544 9.15417 1.20019 9.1467C1.2638 9.1358 1.3259 9.11733 1.38513 9.09172C1.44701 9.06716 1.50574 9.03527 1.56007 8.99675C1.61542 8.96201 1.66584 8.91997 1.71002 8.8718C1.75819 8.82762 1.80023 8.7772 1.83497 8.72185C1.8734 8.66924 1.90529 8.6122 1.92994 8.55191C1.96408 8.48556 1.98929 8.41496 2.00491 8.34198C2.0126 8.27722 2.0126 8.21181 2.00491 8.14705Z" fill="#999FA9"/>
<path d="M2.00497 12.6455C2.01238 12.5807 2.01238 12.5153 2.00497 12.4505C1.9877 12.3844 1.96252 12.3207 1.93 12.2606C1.90317 12.2014 1.8714 12.1445 1.83503 12.0907C1.8003 12.0353 1.75825 11.9849 1.71008 11.9407C1.32018 11.5531 0.690467 11.5531 0.300573 11.9407C0.252402 11.9849 0.210355 12.0353 0.175617 12.0907C0.139255 12.1445 0.107484 12.2014 0.0806501 12.2606C0.0547218 12.3215 0.0362595 12.3852 0.0256695 12.4505C0.0115807 12.5145 0.00489554 12.5799 0.00567651 12.6455C0.00680112 12.9102 0.112858 13.1636 0.300573 13.3502C0.344745 13.3984 0.395165 13.4404 0.45052 13.4752C0.503158 13.5135 0.5602 13.5454 0.62046 13.5701C0.681408 13.5958 0.745166 13.6142 0.810394 13.6251C0.87434 13.6395 0.939785 13.6462 1.00532 13.6451C1.07008 13.6526 1.1355 13.6526 1.20026 13.6451C1.26386 13.6342 1.32596 13.6157 1.38519 13.5901C1.44708 13.5656 1.50581 13.5337 1.56013 13.4952C1.61549 13.4604 1.66591 13.4184 1.71008 13.3702C1.75825 13.326 1.8003 13.2756 1.83503 13.2203C1.87349 13.1677 1.90538 13.1106 1.93 13.0503C1.96411 12.9839 1.98932 12.9134 2.00497 12.8404C2.01266 12.7756 2.01266 12.7102 2.00497 12.6455Z" fill="#999FA9"/>
<path d="M15.0003 7.14746H4.00416C3.45208 7.14746 3.00452 7.59502 3.00452 8.14711C3.00452 8.6992 3.45208 9.14676 4.00416 9.14676H15.0003C15.5524 9.14676 15.9999 8.6992 15.9999 8.14711C15.9999 7.59502 15.5524 7.14746 15.0003 7.14746Z" fill="#999FA9"/>
<path d="M10.5019 11.6459H4.00417C3.45208 11.6459 3.00452 12.0934 3.00452 12.6455C3.00452 13.1976 3.45208 13.6452 4.00417 13.6452H10.5019C11.054 13.6452 11.5015 13.1976 11.5015 12.6455C11.5015 12.0934 11.054 11.6459 10.5019 11.6459Z" fill="#999FA9"/>
</svg>
