<svg width="713" height="900" viewBox="0 0 713 900" fill="none" xmlns="http://www.w3.org/2000/svg">
<rect width="713" height="900" fill="#E5E5E5"/>
<g clip-path="url(#clip0_0_1)">
<rect width="1440" height="900" fill="white"/>
<g filter="url(#filter0_b_0_1)">
<rect width="712.796" height="903.524" transform="matrix(-1 0 0 1 712.796 -3.52368)" fill="#032339"/>
</g>
<g opacity="0.8">
<path d="M387.01 -6.10352e-05V149.362C387.01 177.668 376.835 205.031 358.341 226.46L292.369 302.9C268.124 330.992 224.585 330.992 200.34 302.9V302.9C176.095 274.808 132.556 274.808 108.311 302.9L0.00587294 428.39" stroke="#FE8700" stroke-width="20" stroke-linecap="round" stroke-linejoin="round"/>
<path d="M-22.4731 533.798L95.1151 649.094C114.743 668.339 126.902 693.699 129.494 720.797L134.344 771.5C141.109 842.218 82.4863 902.443 10.1258 899.115L-11.83 898.105" stroke="#FE8700" stroke-width="20" stroke-linecap="round" stroke-linejoin="round"/>
<path d="M154.82 791.409L338.71 791.409C348.903 791.409 358.973 792.677 368.7 795.725C412.788 809.542 540.216 855.826 522.102 924.458" stroke="#FE8700" stroke-width="20" stroke-linecap="round" stroke-linejoin="round"/>
</g>
<path fill-rule="evenodd" clip-rule="evenodd" d="M178.112 475.621C181.181 480.935 184.252 486.249 187.327 491.561L259.244 474.349L273.016 470.658L178.112 475.621Z" fill="#FE8700"/>
<path fill-rule="evenodd" clip-rule="evenodd" d="M271.87 472.643L206.039 494.579L210.394 502.121C211.001 503.208 211.891 504.11 212.97 504.733C214.048 505.355 215.274 505.675 216.52 505.658H248.715C249.96 505.675 251.187 505.355 252.265 504.733C253.343 504.11 254.233 503.207 254.841 502.121L262.905 488.153L262.914 488.158L270.258 475.438L253.137 484.947L247.015 495.552H230.629L254.734 482.162L271.87 472.643Z" fill="white"/>
<path fill-rule="evenodd" clip-rule="evenodd" d="M260.454 469.063L272.251 469.333L272.246 469.324L259.962 468.211L207.871 463.707L218.219 445.764H247.014L254.189 458.191V458.211L258.961 466.477L260.095 466.556L271.231 467.566L262.913 453.158L262.904 453.163L254.84 439.195C254.232 438.108 253.342 437.206 252.264 436.584C251.186 435.961 249.959 435.642 248.714 435.659H216.519C215.273 435.642 214.047 435.961 212.969 436.584C211.89 437.206 211 438.109 210.393 439.196L202.328 453.164C199.263 458.464 196.926 462.501 193.865 467.803L260.454 469.063Z" fill="white"/>
<path d="M430.627 465.469C432.91 465.469 434.737 466.111 436.111 467.395C437.484 468.679 438.206 470.373 438.278 472.478V490.025H430.841V475.581C430.77 474.404 430.573 473.521 430.252 472.932C429.931 472.344 429.307 472.014 428.38 471.943C426.632 471.943 425.268 472.79 424.287 474.484C423.306 476.178 422.816 478.167 422.816 480.449V490.025H415.326V475.581C415.254 474.404 415.04 473.521 414.684 472.932C414.327 472.344 413.667 472.014 412.704 471.943C411.028 471.943 409.708 472.79 408.745 474.484C407.758 476.276 407.259 478.296 407.301 480.342V490.025H399.811V466.646H406.607L407.142 470.337C409.032 467.091 411.85 465.468 415.595 465.468C417.485 465.468 419.046 465.852 420.276 466.619C421.515 467.397 422.421 468.607 422.817 470.016C423.761 468.676 424.973 467.546 426.375 466.699C427.653 465.906 429.124 465.481 430.627 465.469ZM471.126 466.646V490.025H463.636V487.136C461.389 489.49 458.786 490.667 455.826 490.667C452.367 490.667 449.558 489.633 447.399 487.565C445.24 485.497 444.161 482.429 444.162 478.362C444.162 475.795 444.688 473.539 445.741 471.595C446.711 469.739 448.161 468.178 449.94 467.074C451.625 466.022 453.572 465.466 455.558 465.469C457.627 465.469 459.267 465.781 460.479 466.405C461.722 467.055 462.815 467.957 463.689 469.054L464.17 466.646L471.126 466.646ZM457.966 484.568C460.57 484.568 462.46 483.391 463.637 481.037V475.313C463.218 474.183 462.438 473.224 461.417 472.585C460.303 471.889 459.01 471.536 457.698 471.568C456.909 471.558 456.127 471.715 455.403 472.029C454.679 472.342 454.03 472.805 453.498 473.387C452.338 474.6 451.759 476.133 451.759 477.988C451.748 479.158 452.043 480.311 452.615 481.332C453.15 482.312 453.935 483.133 454.889 483.712C455.815 484.278 456.88 484.574 457.965 484.568H457.966ZM495.094 465.523C497.306 465.523 499.151 466.182 500.631 467.502C501.351 468.127 501.926 468.9 502.319 469.768C502.712 470.636 502.912 471.578 502.907 472.531V490.025H495.417V475.313C495.31 473.03 494.168 471.889 491.993 471.889C490.281 471.889 488.907 472.692 487.873 474.297C486.838 475.902 486.321 477.97 486.321 480.502V490.025H478.831V466.646H485.626L486.161 470.391C486.988 468.887 488.22 467.645 489.718 466.807C491.367 465.918 493.221 465.475 495.094 465.523ZM526.873 465.523C529.084 465.523 530.93 466.182 532.41 467.502C533.129 468.127 533.705 468.9 534.097 469.768C534.49 470.636 534.69 471.578 534.684 472.531V490.025H527.194V475.313C527.087 473.03 525.946 471.889 523.77 471.889C522.058 471.889 520.685 472.692 519.65 474.297C518.616 475.902 518.098 477.97 518.098 480.502V490.025H510.608V466.646H517.403L517.938 470.391C518.765 468.887 519.997 467.645 521.495 466.807C523.145 465.917 524.999 465.475 526.873 465.523Z" fill="white"/>
<path d="M286.499 450.649V490.025H278.742V450.649H286.499ZM311.698 465.522C313.909 465.522 315.755 466.182 317.235 467.502C317.954 468.127 318.529 468.9 318.922 469.768C319.314 470.636 319.514 471.578 319.509 472.531V490.025H312.019V475.313C311.912 473.03 310.77 471.889 308.595 471.889C306.883 471.889 305.509 472.691 304.475 474.296C303.44 475.901 302.923 477.97 302.923 480.502V490.025H295.434V466.646H302.228L302.763 470.391C303.59 468.886 304.823 467.644 306.321 466.806C307.971 465.917 309.824 465.475 311.698 465.522ZM336.896 456.374V466.539H342.567V472.37H336.896V490.025H329.406V472.37H325.768V466.539H329.406V456.374H336.896ZM359.955 484.301C361.453 484.301 363.005 483.784 364.61 482.749L367.926 488.313C366.636 489.029 365.273 489.603 363.86 490.025C362.543 490.436 361.173 490.653 359.794 490.667C357.012 490.667 354.613 490.141 352.598 489.089C350.657 488.109 349.061 486.56 348.024 484.648C346.963 482.63 346.429 480.375 346.472 478.095C346.458 475.863 347.08 473.673 348.265 471.782C349.464 469.852 351.153 468.274 353.16 467.208C355.246 466.08 357.583 465.5 359.954 465.522C363.307 465.522 366.062 466.503 368.22 468.465C370.378 470.427 371.777 473.227 372.419 476.865L355.299 482.322C356.441 483.641 357.993 484.301 359.954 484.301H359.955ZM359.367 471.354C357.69 471.354 356.353 471.925 355.354 473.066C354.356 474.207 353.856 475.741 353.855 477.666V478.147L364.126 474.67C363.378 472.459 361.791 471.354 359.366 471.354H359.367ZM385.208 471.996C385.873 470.718 386.771 469.575 387.855 468.625C388.887 467.688 390.049 466.904 391.305 466.298C392.482 465.745 393.41 465.469 394.087 465.469L393.713 472.959C393.411 472.917 393.107 472.899 392.803 472.905C391.394 472.879 390.011 473.29 388.844 474.082C387.722 474.844 386.819 475.886 386.223 477.105C385.631 478.275 385.32 479.566 385.313 480.877V490.025H377.877V466.646H384.618L385.208 471.996Z" fill="#FE8700"/>
</g>
<defs>
<filter id="filter0_b_0_1" x="-74.0002" y="-77.5237" width="860.796" height="1051.52" filterUnits="userSpaceOnUse" color-interpolation-filters="sRGB">
<feFlood flood-opacity="0" result="BackgroundImageFix"/>
<feGaussianBlur in="BackgroundImage" stdDeviation="37"/>
<feComposite in2="SourceAlpha" operator="in" result="effect1_backgroundBlur_0_1"/>
<feBlend mode="normal" in="SourceGraphic" in2="effect1_backgroundBlur_0_1" result="shape"/>
</filter>
<clipPath id="clip0_0_1">
<rect width="1440" height="900" fill="white"/>
</clipPath>
</defs>
</svg>
